<?xml version="1.0" encoding="utf-8"?>
<!-- Generator: Adobe Illustrator 26.4.1, SVG Export Plug-In . SVG Version: 6.00 Build 0)  -->
<!DOCTYPE svg PUBLIC "-//W3C//DTD SVG 1.1//EN" "http://www.w3.org/Graphics/SVG/1.1/DTD/svg11.dtd" [
	<!ENTITY ns_extend "http://ns.adobe.com/Extensibility/1.0/">
	<!ENTITY ns_ai "http://ns.adobe.com/AdobeIllustrator/10.0/">
	<!ENTITY ns_graphs "http://ns.adobe.com/Graphs/1.0/">
	<!ENTITY ns_vars "http://ns.adobe.com/Variables/1.0/">
	<!ENTITY ns_imrep "http://ns.adobe.com/ImageReplacement/1.0/">
	<!ENTITY ns_sfw "http://ns.adobe.com/SaveForWeb/1.0/">
	<!ENTITY ns_custom "http://ns.adobe.com/GenericCustomNamespace/1.0/">
	<!ENTITY ns_adobe_xpath "http://ns.adobe.com/XPath/1.0/">
]>
<svg version="1.1" id="Layer_1" xmlns:x="&ns_extend;" xmlns:i="&ns_ai;" xmlns:graph="&ns_graphs;"
	 xmlns="http://www.w3.org/2000/svg" xmlns:xlink="http://www.w3.org/1999/xlink" x="0px" y="0px" viewBox="0 0 612 792"
	 style="enable-background:new 0 0 612 792;" xml:space="preserve">
<style type="text/css">
	.st0{fill:#FFFFFF;}
</style>
<metadata>
	<sfw  xmlns="&ns_sfw;">
		<slices></slices>
		<sliceSourceBounds  bottomLeftOrigin="true" height="639.18" width="557.17" x="27.41" y="-715.59"></sliceSourceBounds>
	</sfw>
</metadata>
<path class="st0" d="M406.78,516.21l40.9,51.01c0,0-90.56,98.97-200.95,90.49S87.98,559.82,87.98,559.82S27.64,421.9,180.89,284.12
	s254.15-7.13,254.15-7.13s27.25,46.59,20,80.49c-7.25,33.9-70.81,45.33-70.81,45.33s-23.75,4.39-29.29-8.5s1.89-23.93,1.89-23.93
	s4.93-4.97,11.07-5.34s17.31-25.47,17.31-25.47s8.78-24.59-3.22-47.93s-47.52-32.7-47.52-32.7s-83.1,4.49-138.62,93.37
	s-53.83,134.78-53.83,134.78s-3.92,88.93,43.76,105.2s110.26,19.25,110.26,19.25s51.95,1.26,79.14-23.09
	c27.19-24.35,25.2-45.02,25.2-45.02l-6.01-11.58c0,0-6.75-9.22,1.59-15.24C404.3,510.6,406.78,516.21,406.78,516.21z"/>
<path class="st0" d="M582.01,681.11l-15.12-20.5c0,0,33.04-32.74-5.39-99.72c0,0,2.53,17.47-1.75,30.72
	c-1.39,4.3-2.1,7.32-6.51,15.53c-9.21,11.51-21.21,14.97-38.53,20.77c-6.49,2.17-21.28,5.32-28.01,5.38
	c-15.35,0.14-30.71,0.29-46.06,0.43c-45.46,0.42-90.93,0.85-136.39,1.27c-31.49,0.29-62.99,0.59-94.48,0.88
	c-1.07,0.01-2.15,0.02-3.22,0.03l202.34-443.15c0,0,10.76,12.8,46.31-24.04c24.67-25.56,45.46-61.99,53.63-80.43
	c6.88-15.54-10.25-12.39-19.57-9.39c-16.87,5.45-29.31,14.19-43.72,23.97c-20.65,14.02-49.01-2.59-70.95-5.06
	c-23.26-2.61-48.66-4-70.25,6.76c-31.16,15.53-62.32,44.47-75.73,76.9c-24.56,59.37,60-32.57,111.96-9.73L133.77,616.65
	c0,0-48.34,72.41-106.35,69.55l18.4,24.25l509.23-0.16l11.41,5.3l15.1-18.23C585.42,692.7,585.61,685.99,582.01,681.11z
	 M194.34,549.34c0,0,60.48-175.2,135.87-242.31C330.21,307.03,249.91,505.6,194.34,549.34z"/>
</svg>
